<?xml version="1.0" encoding="UTF-8" standalone="no"?>
<svg
   width="302"
   height="83"
   viewBox="0 0 302 83"
   fill="none"
   version="1.1"
   id="svg15"
   sodipodi:docname="nym.svg"
   inkscape:version="1.2 (1:1.2.1+202207142221+cd75a1ee6d)"
   xmlns:inkscape="http://www.inkscape.org/namespaces/inkscape"
   xmlns:sodipodi="http://sodipodi.sourceforge.net/DTD/sodipodi-0.dtd"
   xmlns="http://www.w3.org/2000/svg"
   xmlns:svg="http://www.w3.org/2000/svg">
  <sodipodi:namedview
     id="namedview17"
     pagecolor="#ffffff"
     bordercolor="#000000"
     borderopacity="0.25"
     inkscape:showpageshadow="2"
     inkscape:pageopacity="0.0"
     inkscape:pagecheckerboard="0"
     inkscape:deskcolor="#d1d1d1"
     showgrid="false"
     inkscape:zoom="4.7483444"
     inkscape:cx="151.3159"
     inkscape:cy="41.593445"
     inkscape:window-width="2560"
     inkscape:window-height="1366"
     inkscape:window-x="0"
     inkscape:window-y="32"
     inkscape:window-maximized="1"
     inkscape:current-layer="svg15" />
  <g
     clip-path="url(#clip0_1809_3580)"
     id="g8">
    <path
       d="M19.0597 9.33676L45.458 82.1126H62.3773H81.4371V0.22699H62.3773V72.9004L36.081 0.22699H19.0597H0V82.1126H19.0597V9.33676Z"
       fill="#E7E8EC"
       id="path2" />
    <path
       d="M265.613 0.22699L247.573 72.9004L229.532 0.22699H193.043V82.1126H212.103V9.33676L230.144 82.1126H264.9L282.94 9.33676V82.1126H302V0.22699H265.613Z"
       fill="#E7E8EC"
       id="path4" />
    <path
       d="M137.291 40.9651L113.849 0.22699H91.8333L127.71 62.6647V82.1126H146.77V62.6647L182.647 0.22699H160.632L137.291 40.9651Z"
       fill="#E7E8EC"
       id="path6" />
  </g>
  <defs
     id="defs13">
    <clipPath
       id="clip0_1809_3580">
      <rect
         width="302"
         height="81.8856"
         fill="white"
         transform="translate(0 0.22699)"
         id="rect10" />
    </clipPath>
  </defs>
  <path
     style="fill:#000000;stroke-width:0.2106"
     d="M 0,41.17107 V 0.41884729 l 18.047712,0.053826 18.047711,0.053826 12.98814,35.89259271 c 7.143475,19.740927 13.089758,36.041345 13.213962,36.223152 0.161125,0.235855 0.22937,-10.062364 0.238207,-35.945243 L 62.548112,0.42119943 H 71.9198 81.291487 V 41.173429 81.925657 L 63.367984,81.871825 45.444474,81.817992 32.38815,45.805439 C 25.207173,25.998536 19.24681,9.7028556 19.142901,9.5928173 19.031356,9.4746932 18.953975,24.246481 18.953975,45.65802 V 81.923291 H 9.4769874 0 Z"
     id="path261" />
  <path
     style="fill:#000000;stroke-width:0.2106"
     d="M 127.83403,72.314458 V 62.705625 L 115.47553,41.198349 C 108.67835,29.369348 100.62759,15.355352 97.584937,10.056137 L 92.052846,0.42119944 h 10.904804 10.9048 L 125.53409,20.720013 c 6.41939,11.164347 11.72491,20.267659 11.79004,20.22958 0.0651,-0.03808 5.32486,-9.169512 11.68828,-20.292071 l 11.56988,-20.2228368 10.90594,-0.006743 10.90595,-0.006743 -0.25329,0.47384937 C 182.00158,1.155666 174.08876,14.942042 164.55685,31.531439 c -9.53192,16.589397 -17.47671,30.444786 -17.6551,30.789751 -0.27798,0.537545 -0.32434,1.983508 -0.32434,10.114656 v 9.487445 h -9.37169 -9.37169 z"
     id="path263" />
  <path
     style="fill:#000000;stroke-width:0.2106"
     d="M 193.11994,41.172245 V 0.42119944 h 18.21688 c 10.01928,0 18.21688,0.0556731 18.21688,0.12371792 0,0.12462041 17.61792,71.23770664 17.83476,71.98834164 0.092,0.318365 0.14933,0.340449 0.27354,0.105299 0.0864,-0.163655 4.16998,-16.47951 9.07453,-36.257456 L 265.6539,0.42119944 H 283.82695 302 V 41.172245 81.923291 h -9.47699 -9.47698 l -0.0143,-36.275801 c -0.009,-22.690107 -0.0881,-36.1180586 -0.21129,-35.854603 -0.16129,0.344794 -17.28706,69.192086 -17.77218,71.445955 l -0.14732,0.684449 h -17.34963 -17.34962 l -0.20902,-0.789748 c -0.11495,-0.434362 -4.15187,-16.708742 -8.97093,-36.16529 -4.81907,-19.456548 -8.80377,-35.4173735 -8.8549,-35.4685029 -0.0511,-0.051129 -0.093,16.2232519 -0.093,36.1652889 v 36.258252 h -9.47699 -9.47699 z"
     id="path265" />
</svg>
