<?xml version="1.0" encoding="UTF-8" standalone="no"?>
<!-- Created with Inkscape (http://www.inkscape.org/) -->

<svg
   version="1.1"
   id="svg1925"
   width="345"
   height="359"
   viewBox="0 0 345 359"
   xmlns="http://www.w3.org/2000/svg"
   xmlns:svg="http://www.w3.org/2000/svg">
  <defs
     id="defs1929" />
  <g
     id="g1931">
    <path
       style="fill:#000000"
       d="M 149,350.42218 C 118.90478,345.67273 92.62351,334.0851 68.362921,314.8686 58.166112,306.79184 41.534188,288.62851 33.951172,277.28834 3.5494722,231.82353 -3.9916574,174.76654 13.580308,123.16021 18.250564,109.44434 28.236597,89.940644 36.44666,78.5 62.332198,42.42875 98.681417,18.922868 142.60989,9.8476206 158.34303,6.5972879 187.58673,6.5669927 203.63619,9.7844001 226.63369,14.394667 247.01914,22.747608 265.63857,35.189879 344.47599,87.872292 366.19209,195.02259 314.24077,275 c -25.03415,38.5393 -64.01202,65.04448 -108.9413,74.08074 -14.23303,2.86257 -42.40695,3.53387 -56.29947,1.34144 z m 20,-12.85075 c 0,-7.58468 3.1141,-10.58812 7.17126,-6.91644 1.33714,1.21009 1.82874,3.09183 1.82874,7 V 343 h 4.5 c 3.88107,0 4.5,-0.28412 4.5,-2.06574 0,-2.75277 1.57454,-5.55702 3.54466,-6.31302 2.49671,-0.95808 5.45534,1.1646 5.45534,3.91394 0,3.11225 2.36846,3.20445 13.5,0.52552 15.9136,-3.82978 31.80202,-10.34454 45.82897,-18.79134 l 5.82897,-3.51011 -0.42553,-56.12962 C 260.27832,200.73145 260.25635,200.44779 254.97142,186.2288 245.26704,160.11942 224.8938,140.45673 199,132.20949 168.88464,122.61766 135.78644,130.66352 113.16534,153.07508 101.13214,164.99681 93.500352,178.18057 88.895914,195 c -2.287085,8.35443 -2.33259,9.46909 -2.65714,65.08686 l -0.330206,56.58686 3.886266,2.57181 c 11.011516,7.28708 28.598356,14.80248 44.022746,18.81229 14.36456,3.73429 17.18242,3.81258 17.18242,0.47736 0,-1.44136 0.83045,-2.90926 2,-3.53518 2.96228,-1.58536 6,0.37322 6,3.86852 0,3.71577 0.57018,4.13148 5.66667,4.13148 H 169 Z m 41.81326,-16.08194 c -1.03416,-2.26974 -0.76836,-2.89152 2.77144,-6.48318 2.15341,-2.18496 4.7178,-3.98023 5.69863,-3.98948 2.32909,-0.022 8.71667,6.38991 8.71667,8.74984 0,3.24563 -2.1515,4.23333 -9.22144,4.23333 -6.3134,0 -6.90663,-0.18698 -7.9653,-2.51051 z m -95.88096,-8.61598 c -0.82611,-1.54361 -0.84163,-2.7771 -0.0566,-4.5 C 115.92115,306.07894 116.33368,306 127.27856,306 139.16951,306 141,306.60032 141,310.5 c 0,3.89639 -1.83295,4.5 -13.66482,4.5 -10.46472,0 -11.34564,-0.15104 -12.40288,-2.12649 z M 207.2,308.8 c -3.39429,-3.39429 0.59738,-9.04917 4.8,-6.8 3.52965,1.88901 2.00191,8 -2,8 -0.88,0 -2.14,-0.54 -2.8,-1.2 z m 17.81078,-0.28701 c -1.70781,-2.05779 -0.45795,-6.23629 2.10908,-7.05103 1.45387,-0.46144 2.76,-0.0265 4.1775,1.39096 1.7574,1.7574 1.89104,2.43817 0.90391,4.60469 -1.31924,2.89541 -5.19169,3.46378 -7.19049,1.05538 z M 217.25,304.90082 c -2.48506,-0.92375 -3.07327,-4.67755 -1.05,-6.70082 3.32281,-3.32281 9.05439,0.58764 6.86296,4.68235 -1.31239,2.45223 -3.036,3.05073 -5.81296,2.01847 z m -98.79087,-20.26769 c -5.83344,-2.71641 -9.58023,-6.76489 -11.91241,-12.87162 -1.43691,-3.7625 -1.61016,-8.62002 -1.34779,-37.78949 L 105.5,200.5 l 2.80528,-4.77239 c 1.5429,-2.62482 4.6596,-5.99982 6.92601,-7.5 l 4.12074,-2.72761 52.81366,-0.27559 c 51.05187,-0.26639 52.94387,-0.20917 56.71654,1.71551 5.27774,2.6925 10.67127,9.22977 12.01379,14.56142 1.67689,6.65953 1.40737,64.90252 -0.32277,69.75069 -2.13519,5.98319 -6.4231,10.76945 -11.95622,13.34581 L 223.5,286.98046 h -50 -50 z m 107.30001,-8.62773 c 6.24844,-3.80972 7.23293,-6.83721 7.23712,-22.2554 L 233,240 h -12.3 c -12.91288,0 -14.7,-0.54708 -14.7,-4.5 0,-3.95292 1.78712,-4.5 14.7,-4.5 H 233 l -0.002,-13.25 C 232.997,202.56656 231.85276,198.93534 226,195.53402 222.61005,193.56395 220.95934,193.5 173.5,193.5 c -54.15295,0 -52.80433,-0.15081 -57.21267,6.39788 -2.10949,3.1337 -2.28733,4.47488 -2.28733,17.25 V 231 h 11.56574 C 138.06425,231 141,231.82459 141,235.33518 141,239.46783 139.32301,240 126.3,240 H 114 v 14.09571 c 0,15.9155 0.71968,18.18614 6.90021,21.77061 3.51547,2.03884 4.74748,2.08819 52.59979,2.10697 47.15222,0.0185 49.1229,-0.0557 52.25914,-1.96789 z m -68.46059,-9.96492 c -5.48123,-3.3421 -8.31735,-12.12014 -4.84659,-15.00061 2.3809,-1.97597 4.78769,-0.78358 6.98593,3.461 3.84892,7.43188 9.56211,5.43308 9.56211,-3.34538 0,-3.98312 -0.53686,-5.02989 -5,-9.74901 -5.45551,-5.76839 -6.26907,-9.05169 -3.54716,-14.31529 1.88078,-3.63702 5.46897,-4.93524 13.76479,-4.98017 5.75305,-0.0311 7.14816,0.3259 9.716,2.48658 5.79183,4.87351 4.96717,11.31701 -2.34831,18.34857 -3.1953,3.07128 -3.58532,4.00137 -3.58532,8.55 0,5.54309 1.19611,7.50383 4.57756,7.50383 2.55723,0 3.89913,-1.46351 4.79978,-5.23477 0.75523,-3.16235 4.77466,-4.7139 7.13565,-2.75445 2.05678,1.70697 1.84983,6.91891 -0.41088,10.34792 -4.10896,6.23244 -10.57952,8.13997 -17.62539,5.19602 -3.01113,-1.25813 -3.8163,-1.25893 -6.21788,-0.006 -3.84741,2.00696 -9.17824,1.79798 -12.96029,-0.50808 z m 19.387,-30.21479 c 1.27295,-1.19588 2.31445,-2.77088 2.31445,-3.5 0,-1.64069 -2.19606,-1.72963 -3.77287,-0.15282 -0.89717,0.89717 -1.77799,0.89717 -3.74706,0 -3.2015,-1.4587 -3.48007,-1.45768 -3.48007,0.0127 0,1.4806 3.99502,5.81445 5.35986,5.81445 0.55618,0 2.05274,-0.97844 3.32569,-2.17431 z m -52.11412,21.60288 c -1.84273,-1.84273 -1.94264,-2.86643 -0.53625,-5.49431 0.86685,-1.61971 2.13528,-1.93426 7.8,-1.93426 3.92819,0 7.268,0.50318 7.96482,1.2 1.83712,1.83712 1.42786,5.60769 -0.73426,6.76482 -3.07073,1.6434 -12.6698,1.28826 -14.49431,-0.53625 z M 207.2,257.8 c -1.63003,-1.63003 -1.51418,-5.29436 0.21269,-6.72754 0.84553,-0.70173 3.91007,-1.05199 7.6332,-0.87244 4.95567,0.23898 6.49575,0.71608 7.57409,2.34636 1.15237,1.7422 1.12414,2.37392 -0.18991,4.25 -1.31076,1.87137 -2.4848,2.20362 -7.78677,2.20362 -3.52257,0 -6.76624,-0.52294 -7.4433,-1.2 z m -74.18902,-38.77948 c -2.23624,-4.17846 1.97491,-12.28102 7.60556,-14.63366 4.3386,-1.81278 6.81683,-1.74958 11.10039,0.2831 4.70715,2.23369 7.40136,6.75111 7.05547,11.83004 -0.26136,3.83782 -0.41173,4 -3.70883,4 -3.04596,0 -3.53328,-0.37373 -4.28872,-3.28908 -1.15009,-4.43834 -4.95911,-6.25913 -7.77079,-3.7146 -1.10223,0.99751 -2.00406,2.55391 -2.00406,3.45867 0,4.0272 -6.0957,5.60322 -7.98902,2.06553 z m 55,0 C 184.83771,213.09121 193.06144,203 201.06675,203 c 6.77501,0 13.29848,7.0216 12.74548,13.71872 -0.29552,3.57896 -0.49565,3.78128 -3.74028,3.78128 -2.91362,0 -3.54099,-0.42228 -4.18062,-2.81393 -2.07499,-7.75867 -8.38096,-7.41261 -10.27607,0.56393 -0.52977,2.22977 -1.21062,2.75 -3.59913,2.75 -1.91213,0 -3.31749,-0.69458 -4.00515,-1.97948 z M 79.276248,197 c 1.791422,-7.53595 4.454704,-15.63136 6.086248,-18.5 C 86.130278,177.15006 86.662514,164.31142 87,139 l 0.5,-37.5 2.712446,-0.3128 c 1.994718,-0.23003 8.450155,3.01139 24.396454,12.25 11.9262,6.90954 22.0542,12.5628 22.50666,12.5628 0.45245,0 4.19152,-1.09971 8.30902,-2.4438 17.3288,-5.65669 37.64533,-5.6605 55.53103,-0.0104 4.52423,1.4292 8.95753,2.31778 9.85179,1.97462 0.89426,-0.34316 10.90281,-6.00063 22.24122,-12.57217 17.65996,-10.23538 24.71619,-13.390119 26.16554,-11.69824 0.11779,0.1375 0.46829,17.125 0.77889,37.75 l 0.56471,37.5 2.78595,7.33703 C 268.72206,198.00133 269,201.64989 269,258.08797 269,286.63959 269.35445,310 269.78768,310 c 0.43322,0 4.66365,-3.4875 9.40096,-7.75 C 349.94305,238.58711 352.294,128.49721 284.32285,61.826864 276.07333,53.735218 258.41928,40 256.26852,40 255.57083,40 255,40.575195 255,41.278212 c 0,0.703016 -1.5555,4.523986 -3.45666,8.491043 C 230.72005,93.220177 180.85447,111.73053 137.53643,92.08919 118.65112,83.526182 102.04373,66.397336 93.89116,47.073506 92.376447,43.483219 90.704148,40.401383 90.174942,40.224981 88.215047,39.571682 69.162182,55.102726 58.926441,65.697361 36.624577,88.781193 21.320941,118.57361 15.365398,150.5 c -2.61591,14.02334 -2.617803,43.95858 -0.0037,58 2.468709,13.26028 9.281513,33.84422 14.909575,45.0472 9.288301,18.48889 23.947512,37.49317 38.615978,50.06195 L 76.5,310.13216 77.115544,256.81608 C 77.61179,213.83313 78.030554,202.24024 79.276248,197 Z M 290.20362,248.43007 C 286.42684,245.78471 287.95557,241 292.57756,241 c 4.55132,0 5.78872,5.02415 1.87606,7.61729 -1.74375,1.15569 -2.37226,1.128 -4.25,-0.18722 z M 51.2,238.8 c -0.66,-0.66 -1.2,-2.685 -1.2,-4.5 0,-3.06667 -0.233333,-3.3 -3.3,-3.3 -3.79965,0 -5.7,-1.50028 -5.7,-4.5 0,-2.98658 1.896694,-4.5 5.639635,-4.5 3.001955,0 3.262405,-0.26676 3.55,-3.63604 0.204364,-2.3942 1.053784,-4.12691 2.487063,-5.0733 1.955988,-1.29153 2.386925,-1.22704 4.25,0.63604 C 58.102966,215.10297 59,217.29798 59,219 c 0,2.7561 0.281687,3 3.464816,3 C 65.761089,222 68,223.96695 68,226.86283 68,228.82227 64.804118,231 61.928571,231 59.451418,231 59,231.39549 59,233.56574 c 0,5.47928 -4.521074,8.51319 -7.8,5.23426 z m 246.3,-51.00782 c -3.27026,-1.87549 -4.43455,-4.05593 -4.4682,-8.36787 -0.0657,-8.42303 9.48451,-11.88766 15.18425,-5.50853 3.16563,3.54295 3.45111,5.8934 1.23605,10.17684 -2.28521,4.41911 -7.74867,6.11023 -11.9521,3.69956 z M 32.414044,163.6366 c -0.314714,-0.82013 -0.42412,-2.53637 -0.243125,-3.81387 C 32.443678,157.89753 33.099019,157.5 36,157.5 c 3.333333,0 3.5,0.16667 3.5,3.5 0,3.21932 -0.261184,3.52517 -3.256875,3.81387 -2.184063,0.21048 -3.44536,-0.17731 -3.829081,-1.17727 z M 118.35323,137.03512 C 122.55896,134.02944 126,131.26333 126,130.88821 126,130.3418 98.873594,114.41532 95.816187,113.16667 95.367284,112.98333 95,123.31879 95,136.13435 v 23.30102 l 7.85323,-8.46769 c 4.31928,-4.65722 11.29428,-10.92688 15.5,-13.93256 z m 132.68511,-1.08308 c 0.06,-12.34862 -0.14657,-22.45204 -0.45903,-22.45204 -0.92076,0 -30.50905,16.95248 -30.54391,17.5 -0.0175,0.275 2.10487,1.84744 4.71639,3.49432 7.11283,4.48549 17.33246,13.58696 21.72778,19.35049 2.1438,2.81113 4.02198,4.98697 4.17375,4.8352 0.15177,-0.15176 0.32503,-10.37935 0.38502,-22.72797 z M 193.5,88.504322 c 23.43441,-6.347817 43.83124,-25.064527 52.46675,-48.144987 l 2.00171,-5.350073 -6.80329,-3.426085 c -9.2162,-4.641204 -25.63836,-10.025388 -38.79838,-12.720474 -14.3726,-2.943415 -42.14481,-3.165711 -55.81626,-0.446767 -12.51334,2.488619 -27.45049,7.060362 -36.97013,11.315268 -11.601348,5.185348 -11.307806,4.660523 -7.59499,13.579116 9.65776,23.198971 30.5622,40.558676 55.51459,46.101065 8.66455,1.924557 27.27779,1.455574 36,-0.907063 z M 144.0964,65.735258 c -11.98024,-6.156882 -7.26445,-25.718271 6.20326,-25.73152 10.65765,-0.01048 17.26507,11.637642 11.74082,20.697713 -3.46244,5.678596 -12.01885,8.078903 -17.94408,5.033807 z M 193.2,37.8 c -1.75501,-1.755014 -1.46799,-4.247497 0.71681,-6.224717 3.41743,-3.092729 8.27653,1.326428 6.04442,5.497159 C 198.80712,39.228909 195.03484,39.634835 193.2,37.8 Z"
       id="path2002" />
  </g>
</svg>
